<svg width="255" height="131" viewBox="0 0 255 131" fill="none" xmlns="http://www.w3.org/2000/svg">
<path d="M12.99 25.85C12.65 25.77 12.36 25.59 12.12 25.31C11.9 25.03 11.74 24.67 11.64 24.23C11.56 23.79 11.51 23.37 11.49 22.97C11.47 22.57 11.45 22.09 11.43 21.53C11.41 20.95 11.38 20.5 11.34 20.18C11.12 20.3 10.43 20.69 9.27 21.35C8.13 22.01 7.24 22.49 6.6 22.79C5.44 23.33 4.41 23.62 3.51 23.66C3.01 23.68 2.53 23.52 2.07 23.18C1.61 22.82 1.37 22.42 1.35 21.98C1.35 21.3 1.91 20.61 3.03 19.91C3.45 19.65 4.07 19.25 4.89 18.71C5.73 18.15 6.34 17.76 6.72 17.54C7.1 17.3 7.61 17.02 8.25 16.7C8.89 16.38 9.53 16.12 10.17 15.92C10.93 15.64 11.41 15.31 11.61 14.93C11.83 14.55 11.9 13.85 11.82 12.83C11.82 12.75 11.81 12.59 11.79 12.35C11.79 12.09 11.78 11.89 11.76 11.75C11.76 11.61 11.76 11.43 11.76 11.21C11.76 10.97 11.77 10.78 11.79 10.64C11.83 10.5 11.87 10.36 11.91 10.22C11.97 10.06 12.05 9.95 12.15 9.89C12.27 9.81 12.4 9.76 12.54 9.74C12.82 9.72 13.03 9.78 13.17 9.92C13.33 10.04 13.42 10.24 13.44 10.52C13.46 10.8 13.46 11.04 13.44 11.24C13.44 11.44 13.41 11.74 13.35 12.14C13.29 12.52 13.26 12.75 13.26 12.83C13.14 13.89 13.07 15.08 13.05 16.4C13.05 17.72 13.07 19.23 13.11 20.93C13.15 22.63 13.17 23.84 13.17 24.56C13.17 25.02 13.11 25.45 12.99 25.85ZM3.3 21.83C3.88 21.93 4.47 21.9 5.07 21.74C5.67 21.58 6.4 21.29 7.26 20.87C8.14 20.45 8.63 20.22 8.73 20.18C8.87 20.12 9.09 20.04 9.39 19.94C9.71 19.84 9.97 19.76 10.17 19.7C10.37 19.62 10.58 19.51 10.8 19.37C11.02 19.23 11.19 19.07 11.31 18.89C11.43 18.69 11.49 18.46 11.49 18.2C11.49 17.92 11.44 17.63 11.34 17.33C8.76 17.83 6.08 19.33 3.3 21.83ZM17.5266 23.15C16.8666 23.59 16.3266 23.7 15.9066 23.48C15.4866 23.24 15.2766 22.67 15.2766 21.77C15.2766 20.61 15.9566 19.18 17.3166 17.48C18.6766 15.76 19.8866 14.6 20.9466 14C21.5066 13.7 21.8866 13.53 22.0866 13.49C22.2866 13.43 22.6966 13.45 23.3166 13.55C24.5566 13.71 25.1566 14.54 25.1166 16.04C25.0766 16.84 24.8766 17.6 24.5166 18.32C24.1566 19.02 23.6666 19.63 23.0466 20.15C22.4266 20.67 21.7666 21.13 21.0666 21.53C20.3866 21.91 19.6366 22.25 18.8166 22.55C18.8166 22.55 18.7466 22.58 18.6066 22.64C18.4866 22.68 18.3266 22.75 18.1266 22.85C17.9466 22.93 17.7466 23.03 17.5266 23.15ZM16.6866 21.59C17.5266 21.65 18.5166 21.4 19.6566 20.84C20.8166 20.28 21.8166 19.55 22.6566 18.65C23.4966 17.75 23.8766 16.91 23.7966 16.13C23.7566 15.77 23.6866 15.51 23.5866 15.35C23.5066 15.17 23.3366 15.08 23.0766 15.08C22.7966 15.08 22.4766 15.18 22.1166 15.38C21.7766 15.58 21.3566 15.86 20.8566 16.22C20.3566 16.58 20.0666 16.79 19.9866 16.85C19.4066 17.23 18.7666 17.93 18.0666 18.95C17.3666 19.95 16.9066 20.83 16.6866 21.59ZM42.6415 13.07C42.8215 12.37 43.0815 12.16 43.4215 12.44C43.7415 12.7 43.9515 13.13 44.0515 13.73C44.0515 13.83 44.0515 13.92 44.0515 14C44.0515 14.78 43.8615 15.64 43.4815 16.58C43.1015 17.52 42.6915 18.47 42.2515 19.43C41.8315 20.39 41.5915 21.25 41.5315 22.01C41.4515 22.85 41.0515 23.27 40.3315 23.27C39.5515 23.27 38.5015 22.57 37.1815 21.17C36.3615 20.31 35.7315 19.74 35.2915 19.46C35.1915 19.62 35.0215 20 34.7815 20.6C34.5415 21.2 34.3115 21.75 34.0915 22.25C33.8715 22.75 33.7215 23 33.6415 23C33.3615 23.28 33.0815 23.45 32.8015 23.51C32.5215 23.55 32.2515 23.49 31.9915 23.33C31.7315 23.15 31.5015 22.96 31.3015 22.76C31.1215 22.56 30.9515 22.33 30.7915 22.07L26.5015 15.5C25.9615 14.74 25.6515 14.09 25.5715 13.55C26.3715 13.45 26.9915 13.61 27.4315 14.03C27.8715 14.43 28.2815 15.06 28.6615 15.92C29.7415 18.26 31.0015 20.15 32.4415 21.59C32.6015 21.41 32.9515 20.7 33.4915 19.46C34.0315 18.2 34.3915 17.41 34.5715 17.09C35.0315 16.31 35.4815 15.68 35.9215 15.2C36.3615 14.7 36.8615 14.38 37.4215 14.24C37.4615 14.68 37.4315 15.1 37.3315 15.5C37.2515 15.9 37.1615 16.2 37.0615 16.4C36.9815 16.6 36.8215 16.9 36.5815 17.3C36.5215 17.42 36.4915 17.52 36.4915 17.6C36.7515 18.28 37.1715 18.96 37.7515 19.64C38.3315 20.32 38.9115 20.66 39.4915 20.66C39.9515 20.66 40.3015 20.3 40.5415 19.58C41.0415 18.2 41.5815 16.82 42.1615 15.44C42.4215 14.04 42.5815 13.25 42.6415 13.07ZM46.6725 12.59C46.7525 12.71 46.8625 12.89 47.0025 13.13C47.1625 13.35 47.2725 13.51 47.3325 13.61C47.3925 13.71 47.4525 13.86 47.5125 14.06C47.5725 14.26 47.6025 14.48 47.6025 14.72C47.6025 14.86 47.6025 15.06 47.6025 15.32C47.6225 15.56 47.6325 15.74 47.6325 15.86C47.6325 15.96 47.6425 16.11 47.6625 16.31C47.6825 16.49 47.7025 16.66 47.7225 16.82C47.7625 16.98 47.8025 17.15 47.8425 17.33C47.8825 17.31 48.1525 17.02 48.6525 16.46C49.1525 15.9 49.5825 15.49 49.9425 15.23C50.3025 14.97 50.6425 14.84 50.9625 14.84C51.1825 14.84 51.3625 14.9 51.5025 15.02C51.6625 15.12 51.7725 15.22 51.8325 15.32C51.8925 15.42 51.9925 15.62 52.1325 15.92C52.2725 16.2 52.4325 17.03 52.6125 18.41C52.8125 19.77 52.9625 20.58 53.0625 20.84C53.1425 21.38 54.1725 21.79 56.1525 22.07C56.0525 22.55 55.7225 22.94 55.1625 23.24C54.6025 23.54 53.9925 23.66 53.3325 23.6C52.6725 23.52 52.1925 23.25 51.8925 22.79C51.5325 22.23 51.3025 21.56 51.2025 20.78C50.9625 18.54 50.7925 17.31 50.6925 17.09C48.5125 18.61 47.4025 20.9 47.3625 23.96C46.9425 23.92 46.6125 23.76 46.3725 23.48C46.1525 23.2 46.0225 22.84 45.9825 22.4C45.9425 21.94 45.9325 21.5 45.9525 21.08C45.9725 20.64 46.0125 20.14 46.0725 19.58C46.1525 19 46.1925 18.57 46.1925 18.29C46.1925 17.83 46.1225 17.12 45.9825 16.16C45.8625 15.2 45.8425 14.46 45.9225 13.94C46.0025 13.4 46.2525 12.95 46.6725 12.59ZM57.3239 9.29C56.9839 8.41 57.0939 7.69 57.6539 7.13C57.9939 7.11 58.2539 7.18 58.4339 7.34C58.6139 7.48 58.7839 7.76 58.9439 8.18C59.1839 8.86 59.3039 9.94 59.3039 11.42C59.3039 12.96 59.3639 14.8 59.4839 16.94C59.6239 19.08 59.6939 20.6 59.6939 21.5C59.6939 22.54 59.5639 23.36 59.3039 23.96C58.7639 23.72 58.3839 23.24 58.1639 22.52C57.9439 21.8 57.8439 21.09 57.8639 20.39C57.8839 19.67 57.9339 18.77 58.0139 17.69C58.0939 16.59 58.1339 15.79 58.1339 15.29C58.1339 15.03 58.1239 14.61 58.1039 14.03C58.1039 13.43 58.0939 13.05 58.0739 12.89C58.0739 12.73 58.0539 12.46 58.0139 12.08C57.9939 11.7 57.9539 11.41 57.8939 11.21C57.8339 10.99 57.7539 10.72 57.6539 10.4C57.5739 10.06 57.4639 9.69 57.3239 9.29ZM64.05 23.15C63.39 23.59 62.85 23.7 62.43 23.48C62.01 23.24 61.8 22.67 61.8 21.77C61.8 20.61 62.48 19.18 63.84 17.48C65.2 15.76 66.41 14.6 67.47 14C68.03 13.7 68.41 13.53 68.61 13.49C68.81 13.43 69.22 13.45 69.84 13.55C71.08 13.71 71.68 14.54 71.64 16.04C71.6 16.84 71.4 17.6 71.04 18.32C70.68 19.02 70.19 19.63 69.57 20.15C68.95 20.67 68.29 21.13 67.59 21.53C66.91 21.91 66.16 22.25 65.34 22.55C65.34 22.55 65.27 22.58 65.13 22.64C65.01 22.68 64.85 22.75 64.65 22.85C64.47 22.93 64.27 23.03 64.05 23.15ZM63.21 21.59C64.05 21.65 65.04 21.4 66.18 20.84C67.34 20.28 68.34 19.55 69.18 18.65C70.02 17.75 70.4 16.91 70.32 16.13C70.28 15.77 70.21 15.51 70.11 15.35C70.03 15.17 69.86 15.08 69.6 15.08C69.32 15.08 69 15.18 68.64 15.38C68.3 15.58 67.88 15.86 67.38 16.22C66.88 16.58 66.59 16.79 66.51 16.85C65.93 17.23 65.29 17.93 64.59 18.95C63.89 19.95 63.43 20.83 63.21 21.59ZM81.9867 17.57C82.0067 16.95 81.9467 16.38 81.8067 15.86C81.6667 15.34 81.4067 14.94 81.0267 14.66C80.6467 14.36 80.1867 14.3 79.6467 14.48C78.0667 15.02 76.7267 15.86 75.6267 17C75.2667 17.34 74.9367 17.41 74.6367 17.21C74.3567 16.99 74.2167 16.66 74.2167 16.22C74.2167 15.88 74.3967 15.55 74.7567 15.23C75.1367 14.89 75.5367 14.62 75.9567 14.42C76.3767 14.2 76.8867 13.96 77.4867 13.7C78.0867 13.42 78.4867 13.23 78.6867 13.13C79.1667 12.85 79.5267 12.66 79.7667 12.56C80.0267 12.46 80.3067 12.41 80.6067 12.41C80.9267 12.39 81.2567 12.46 81.5967 12.62C81.8367 12.72 82.0467 12.94 82.2267 13.28C83.3467 15.28 83.9067 17.19 83.9067 19.01C83.9067 19.21 84.0967 19.79 84.4767 20.75C84.8767 21.69 85.0767 22.29 85.0767 22.55C85.0767 22.85 84.9867 23.16 84.8067 23.48C84.6467 23.8 84.4467 23.96 84.2067 23.96C83.9067 23.94 83.6567 23.85 83.4567 23.69C83.2567 23.51 83.1067 23.33 83.0067 23.15C82.9267 22.95 82.8267 22.67 82.7067 22.31C82.4267 22.41 81.9567 22.6 81.2967 22.88C80.6367 23.16 80.1167 23.37 79.7367 23.51C79.3767 23.63 78.9167 23.79 78.3567 23.99C77.8167 24.17 77.3067 24.3 76.8267 24.38C76.3667 24.46 75.9067 24.5 75.4467 24.5C73.9067 24.5 72.8467 23.93 72.2667 22.79C72.1667 22.47 72.1067 22.19 72.0867 21.95C72.0867 21.69 72.1767 21.43 72.3567 21.17C72.5567 20.89 72.7567 20.66 72.9567 20.48C73.1567 20.28 73.4067 20.08 73.7067 19.88C74.0267 19.68 74.3067 19.51 74.5467 19.37C74.8067 19.23 75.0767 19.11 75.3567 19.01C76.7567 18.37 78.7567 17.92 81.3567 17.66C81.6367 17.62 81.8467 17.59 81.9867 17.57ZM73.9167 22.31C74.7367 22.53 75.5267 22.65 76.2867 22.67C77.0467 22.67 77.8167 22.56 78.5967 22.34C79.3967 22.12 80.1067 21.88 80.7267 21.62C81.3467 21.34 81.9267 21.02 82.4667 20.66C82.0267 20 81.3367 19.58 80.3967 19.4C79.4767 19.2 78.5567 19.22 77.6367 19.46C76.7367 19.68 75.9167 20.05 75.1767 20.57C74.4367 21.09 74.0167 21.67 73.9167 22.31ZM98.0681 25.85C97.7281 25.77 97.4381 25.59 97.1981 25.31C96.9781 25.03 96.8181 24.67 96.7181 24.23C96.6381 23.79 96.5881 23.37 96.5681 22.97C96.5481 22.57 96.5281 22.09 96.5081 21.53C96.4881 20.95 96.4581 20.5 96.4181 20.18C96.1981 20.3 95.5081 20.69 94.3481 21.35C93.2081 22.01 92.3181 22.49 91.6781 22.79C90.5181 23.33 89.4881 23.62 88.5881 23.66C88.0881 23.68 87.6081 23.52 87.1481 23.18C86.6881 22.82 86.4481 22.42 86.4281 21.98C86.4281 21.3 86.9881 20.61 88.1081 19.91C88.5281 19.65 89.1481 19.25 89.9681 18.71C90.8081 18.15 91.4181 17.76 91.7981 17.54C92.1781 17.3 92.6881 17.02 93.3281 16.7C93.9681 16.38 94.6081 16.12 95.2481 15.92C96.0081 15.64 96.4881 15.31 96.6881 14.93C96.9081 14.55 96.9781 13.85 96.8981 12.83C96.8981 12.75 96.8881 12.59 96.8681 12.35C96.8681 12.09 96.8581 11.89 96.8381 11.75C96.8381 11.61 96.8381 11.43 96.8381 11.21C96.8381 10.97 96.8481 10.78 96.8681 10.64C96.9081 10.5 96.9481 10.36 96.9881 10.22C97.0481 10.06 97.1281 9.95 97.2281 9.89C97.3481 9.81 97.4781 9.76 97.6181 9.74C97.8981 9.72 98.1081 9.78 98.2481 9.92C98.4081 10.04 98.4981 10.24 98.5181 10.52C98.5381 10.8 98.5381 11.04 98.5181 11.24C98.5181 11.44 98.4881 11.74 98.4281 12.14C98.3681 12.52 98.3381 12.75 98.3381 12.83C98.2181 13.89 98.1481 15.08 98.1281 16.4C98.1281 17.72 98.1481 19.23 98.1881 20.93C98.2281 22.63 98.2481 23.84 98.2481 24.56C98.2481 25.02 98.1881 25.45 98.0681 25.85ZM88.3781 21.83C88.9581 21.93 89.5481 21.9 90.1481 21.74C90.7481 21.58 91.4781 21.29 92.3381 20.87C93.2181 20.45 93.7081 20.22 93.8081 20.18C93.9481 20.12 94.1681 20.04 94.4681 19.94C94.7881 19.84 95.0481 19.76 95.2481 19.7C95.4481 19.62 95.6581 19.51 95.8781 19.37C96.0981 19.23 96.2681 19.07 96.3881 18.89C96.5081 18.69 96.5681 18.46 96.5681 18.2C96.5681 17.92 96.5181 17.63 96.4181 17.33C93.8381 17.83 91.1581 19.33 88.3781 21.83ZM115.055 19.7C115.995 18.54 116.385 17.04 116.225 15.2C116.225 15.14 116.185 14.86 116.105 14.36C116.025 13.86 115.985 13.56 115.985 13.46C115.985 13.44 115.985 13.4 115.985 13.34C116.005 13.28 116.015 13.24 116.015 13.22C116.015 13.2 116.015 13.16 116.015 13.1C116.035 13.04 116.045 13.01 116.045 13.01C116.045 12.99 116.055 12.96 116.075 12.92C116.095 12.88 116.105 12.85 116.105 12.83C116.125 12.81 116.145 12.79 116.165 12.77C116.185 12.75 116.205 12.74 116.225 12.74C116.265 12.72 116.305 12.71 116.345 12.71C116.385 12.71 116.425 12.71 116.465 12.71C116.745 12.71 116.975 12.79 117.155 12.95C117.335 13.09 117.465 13.27 117.545 13.49C117.645 13.71 117.705 14 117.725 14.36C117.745 14.7 117.745 15.02 117.725 15.32C117.725 15.6 117.705 15.95 117.665 16.37C117.645 16.77 117.635 17.09 117.635 17.33C118.095 17.17 118.625 16.84 119.225 16.34C119.845 15.84 120.395 15.4 120.875 15.02C121.355 14.62 121.715 14.44 121.955 14.48C122.235 14.5 122.485 14.67 122.705 14.99C122.945 15.31 123.105 15.64 123.185 15.98C123.285 16.3 123.395 16.72 123.515 17.24C123.655 17.76 123.755 18.11 123.815 18.29C123.915 18.15 124.105 17.9 124.385 17.54C124.685 17.16 124.905 16.89 125.045 16.73C125.185 16.55 125.385 16.37 125.645 16.19C125.925 16.01 126.195 15.89 126.455 15.83C126.995 15.97 127.355 16.28 127.535 16.76C127.735 17.22 127.835 17.88 127.835 18.74C127.835 19.7 127.935 20.37 128.135 20.75C128.355 21.13 128.815 21.33 129.515 21.35C130.695 21.39 131.435 21.46 131.735 21.56C132.015 21.64 132.375 21.81 132.815 22.07C132.715 22.11 132.395 22.25 131.855 22.49C131.315 22.73 130.905 22.9 130.625 23C130.365 23.1 130.005 23.21 129.545 23.33C129.105 23.43 128.695 23.48 128.315 23.48C127.955 23.48 127.635 23.37 127.355 23.15C127.095 22.93 126.895 22.62 126.755 22.22C126.615 21.8 126.495 21.4 126.395 21.02C126.315 20.64 126.235 20.19 126.155 19.67C126.075 19.15 126.005 18.77 125.945 18.53C125.665 18.85 125.165 19.77 124.445 21.29C123.745 22.79 123.295 23.68 123.095 23.96C122.695 23.68 122.435 23.44 122.315 23.24C122.195 23.04 122.135 22.71 122.135 22.25C122.135 21.21 122.125 20.47 122.105 20.03C122.105 19.59 122.065 19.02 121.985 18.32C121.925 17.6 121.825 16.96 121.685 16.4C121.105 16.84 120.455 17.39 119.735 18.05C119.015 18.69 118.475 19.16 118.115 19.46C117.915 19.64 117.755 19.89 117.635 20.21C117.515 20.51 117.445 20.84 117.425 21.2C117.425 21.54 117.425 21.92 117.425 22.34C117.425 22.74 117.425 23.12 117.425 23.48C116.545 23.38 116.035 22.9 115.895 22.04C115.675 20.84 115.395 20.06 115.055 19.7ZM132.974 15.44C133.614 15.44 134.234 15.71 134.834 16.25C135.434 16.77 135.914 17.36 136.274 18.02C136.634 18.68 137.044 19.4 137.504 20.18C137.984 20.96 138.374 21.51 138.674 21.83C139.154 21.01 139.874 19.46 140.834 17.18C141.794 14.9 142.414 13.45 142.694 12.83C142.754 12.91 142.864 13.02 143.024 13.16C143.204 13.3 143.334 13.45 143.414 13.61C143.494 13.75 143.534 13.93 143.534 14.15C143.534 14.51 143.424 14.96 143.204 15.5C143.004 16.02 142.734 16.61 142.394 17.27C142.054 17.91 141.844 18.33 141.764 18.53C141.544 19.01 141.124 20 140.504 21.5C139.884 22.98 139.354 24.22 138.914 25.22C138.474 26.2 138.084 26.97 137.744 27.53C137.224 28.37 136.584 28.99 135.824 29.39C135.604 29.03 135.554 28.61 135.674 28.13C135.794 27.67 135.994 27.23 136.274 26.81C136.574 26.41 136.874 25.97 137.174 25.49C137.474 24.99 137.694 24.53 137.834 24.11C137.974 23.69 137.944 23.25 137.744 22.79C137.644 22.39 136.934 21.35 135.614 19.67C135.254 19.23 135.094 19.01 135.134 19.01C135.114 18.89 134.894 18.61 134.474 18.17C134.074 17.73 133.704 17.25 133.364 16.73C133.024 16.21 132.894 15.78 132.974 15.44ZM161.802 23.72C161.202 23.64 160.722 23.34 160.362 22.82C160.022 22.28 159.822 21.62 159.762 20.84C159.722 20.06 159.732 19.3 159.792 18.56C159.852 17.82 159.972 17.1 160.152 16.4C160.152 16.28 160.202 15.66 160.302 14.54C160.422 13.4 160.762 12.83 161.322 12.83C161.482 12.83 161.622 12.85 161.742 12.89C161.862 12.93 161.952 13 162.012 13.1C162.092 13.2 162.152 13.29 162.192 13.37C162.252 13.45 162.282 13.57 162.282 13.73C162.282 13.87 162.282 13.99 162.282 14.09C162.302 14.19 162.292 14.34 162.252 14.54C162.232 14.72 162.212 14.85 162.192 14.93C162.192 15.01 162.172 15.15 162.132 15.35C162.092 15.53 162.062 15.64 162.042 15.68C162.522 15.8 163.392 15.82 164.652 15.74C165.932 15.66 166.802 15.71 167.262 15.89C167.702 16.03 168.092 16.27 168.432 16.61C168.132 16.81 167.622 16.98 166.902 17.12C166.182 17.24 165.502 17.33 164.862 17.39C164.222 17.43 163.622 17.57 163.062 17.81C162.502 18.05 162.172 18.39 162.072 18.83C161.972 19.29 161.922 20.11 161.922 21.29C161.922 22.47 161.882 23.28 161.802 23.72ZM175.59 15.86C176.25 15.48 176.95 15.24 177.69 15.14C178.45 15.02 179.11 15.11 179.67 15.41C180.23 15.71 180.51 16.22 180.51 16.94C180.51 17.5 180.24 18.05 179.7 18.59C179.18 19.11 178.61 19.48 177.99 19.7C177.65 19.84 177.23 19.99 176.73 20.15C176.25 20.29 175.88 20.4 175.62 20.48C175.38 20.56 175.1 20.7 174.78 20.9C174.48 21.1 174.21 21.33 173.97 21.59C174.83 21.81 175.77 21.83 176.79 21.65C177.83 21.45 178.72 21.19 179.46 20.87C180.2 20.55 181.07 20.24 182.07 19.94C183.09 19.62 184.02 19.46 184.86 19.46C184.74 20 184.44 20.42 183.96 20.72C183.74 20.86 183.3 21.07 182.64 21.35C181.98 21.63 181.09 21.99 179.97 22.43C178.85 22.85 178.26 23.07 178.2 23.09C177.58 23.35 176.95 23.54 176.31 23.66C175.67 23.76 175.03 23.77 174.39 23.69C173.75 23.59 173.22 23.36 172.8 23C172.72 22.96 172.56 22.81 172.32 22.55C172.08 22.29 171.88 22.15 171.72 22.13C171.58 22.13 171.25 22.2 170.73 22.34C170.23 22.46 169.87 22.53 169.65 22.55C169.35 22.57 169.12 22.47 168.96 22.25C168.8 22.03 168.72 21.78 168.72 21.5C168.72 21.26 168.81 21.1 168.99 21.02C169.17 20.92 169.37 20.88 169.59 20.9C169.83 20.9 170.09 20.9 170.37 20.9C170.67 20.88 170.91 20.82 171.09 20.72C171.59 20.58 171.91 20.43 172.05 20.27C172.19 20.09 172.39 19.66 172.65 18.98C172.75 18.68 172.85 18.42 172.95 18.2C173.07 17.96 173.21 17.74 173.37 17.54C173.55 17.34 173.68 17.19 173.76 17.09C173.84 16.99 174.02 16.85 174.3 16.67C174.58 16.49 174.76 16.37 174.84 16.31C174.94 16.25 175.19 16.1 175.59 15.86ZM174.21 19.22C174.93 19.26 175.61 19.16 176.25 18.92C176.89 18.68 177.4 18.41 177.78 18.11C178.16 17.81 178.63 17.39 179.19 16.85C178.09 16.71 177.11 16.87 176.25 17.33C175.39 17.79 174.71 18.42 174.21 19.22ZM187.098 18.53C187.818 18.63 188.388 18.68 188.808 18.68C189.248 18.68 189.888 18.65 190.728 18.59C191.588 18.53 192.218 18.5 192.618 18.5C193.498 18.5 194.128 18.65 194.508 18.95C194.908 19.25 194.968 19.74 194.688 20.42C194.528 20.76 194.258 21.09 193.878 21.41C193.498 21.73 193.118 21.98 192.738 22.16C192.378 22.34 191.898 22.56 191.298 22.82C190.718 23.08 190.298 23.28 190.038 23.42C189.618 23.64 189.248 23.76 188.928 23.78C188.608 23.78 188.238 23.68 187.818 23.48C187.858 23.34 187.958 23.17 188.118 22.97C188.298 22.77 188.508 22.57 188.748 22.37C189.008 22.17 189.278 21.97 189.558 21.77C189.858 21.55 190.148 21.35 190.428 21.17C190.708 20.99 190.958 20.83 191.178 20.69C191.398 20.55 191.568 20.43 191.688 20.33C191.808 20.23 191.858 20.18 191.838 20.18C191.498 20.1 190.648 20.15 189.288 20.33C187.948 20.51 187.178 20.6 186.978 20.6C186.158 20.6 185.558 20.43 185.178 20.09C184.818 19.73 184.748 19.21 184.968 18.53C185.148 17.91 185.558 17.32 186.198 16.76C186.258 16.68 186.888 16.27 188.088 15.53C189.288 14.79 190.248 14.22 190.968 13.82C191.388 13.58 191.728 13.41 191.988 13.31C192.268 13.21 192.558 13.17 192.858 13.19C193.158 13.21 193.448 13.33 193.728 13.55C194.188 13.89 194.368 14.21 194.268 14.51C194.168 14.81 193.798 15.04 193.158 15.2C190.938 15.82 188.918 16.93 187.098 18.53ZM197.951 14.78C197.651 17.94 197.661 20.21 197.981 21.59C198.821 21.53 199.741 21.17 200.741 20.51C201.761 19.83 202.421 19.17 202.721 18.53C202.941 18.21 203.101 17.38 203.201 16.04C203.321 14.68 203.481 13.85 203.681 13.55C204.301 13.77 204.691 14.19 204.851 14.81C205.031 15.43 205.111 16.35 205.091 17.57C205.091 17.73 205.131 18.09 205.211 18.65C205.291 19.19 205.331 19.54 205.331 19.7C205.291 20.02 205.341 20.29 205.481 20.51C205.641 20.71 205.871 20.88 206.171 21.02C206.471 21.16 206.751 21.27 207.011 21.35C207.271 21.41 207.581 21.48 207.941 21.56C208.041 21.56 208.111 21.57 208.151 21.59C207.851 21.89 207.601 22.13 207.401 22.31C207.201 22.47 206.931 22.63 206.591 22.79C206.251 22.93 205.901 23 205.541 23C204.721 23 204.141 22.64 203.801 21.92C203.621 21.58 203.421 21.16 203.201 20.66C200.801 22.56 198.991 23.54 197.771 23.6C197.511 23.6 197.281 23.55 197.081 23.45C196.901 23.35 196.761 23.22 196.661 23.06C196.561 22.9 196.481 22.68 196.421 22.4C196.361 22.12 196.331 21.86 196.331 21.62C196.331 21.38 196.331 21.08 196.331 20.72C196.371 18.92 196.281 16.8 196.061 14.36C196.041 13.98 196.111 13.6 196.271 13.22C196.451 12.84 196.681 12.63 196.961 12.59C197.221 12.57 197.461 12.83 197.681 13.37C197.901 13.91 197.991 14.38 197.951 14.78ZM208.6 19.7C209.54 18.54 209.93 17.04 209.77 15.2C209.77 15.14 209.73 14.86 209.65 14.36C209.57 13.86 209.53 13.56 209.53 13.46C209.53 13.44 209.53 13.4 209.53 13.34C209.55 13.28 209.56 13.24 209.56 13.22C209.56 13.2 209.56 13.16 209.56 13.1C209.58 13.04 209.59 13.01 209.59 13.01C209.59 12.99 209.6 12.96 209.62 12.92C209.64 12.88 209.65 12.85 209.65 12.83C209.67 12.81 209.69 12.79 209.71 12.77C209.73 12.75 209.75 12.74 209.77 12.74C209.81 12.72 209.85 12.71 209.89 12.71C209.93 12.71 209.97 12.71 210.01 12.71C210.29 12.71 210.52 12.79 210.7 12.95C210.88 13.09 211.01 13.27 211.09 13.49C211.19 13.71 211.25 14 211.27 14.36C211.29 14.7 211.29 15.02 211.27 15.32C211.27 15.6 211.25 15.95 211.21 16.37C211.19 16.77 211.18 17.09 211.18 17.33C211.64 17.17 212.17 16.84 212.77 16.34C213.39 15.84 213.94 15.4 214.42 15.02C214.9 14.62 215.26 14.44 215.5 14.48C215.78 14.5 216.03 14.67 216.25 14.99C216.49 15.31 216.65 15.64 216.73 15.98C216.83 16.3 216.94 16.72 217.06 17.24C217.2 17.76 217.3 18.11 217.36 18.29C217.46 18.15 217.65 17.9 217.93 17.54C218.23 17.16 218.45 16.89 218.59 16.73C218.73 16.55 218.93 16.37 219.19 16.19C219.47 16.01 219.74 15.89 220 15.83C220.54 15.97 220.9 16.28 221.08 16.76C221.28 17.22 221.38 17.88 221.38 18.74C221.38 19.7 221.48 20.37 221.68 20.75C221.9 21.13 222.36 21.33 223.06 21.35C224.24 21.39 224.98 21.46 225.28 21.56C225.56 21.64 225.92 21.81 226.36 22.07C226.26 22.11 225.94 22.25 225.4 22.49C224.86 22.73 224.45 22.9 224.17 23C223.91 23.1 223.55 23.21 223.09 23.33C222.65 23.43 222.24 23.48 221.86 23.48C221.5 23.48 221.18 23.37 220.9 23.15C220.64 22.93 220.44 22.62 220.3 22.22C220.16 21.8 220.04 21.4 219.94 21.02C219.86 20.64 219.78 20.19 219.7 19.67C219.62 19.15 219.55 18.77 219.49 18.53C219.21 18.85 218.71 19.77 217.99 21.29C217.29 22.79 216.84 23.68 216.64 23.96C216.24 23.68 215.98 23.44 215.86 23.24C215.74 23.04 215.68 22.71 215.68 22.25C215.68 21.21 215.67 20.47 215.65 20.03C215.65 19.59 215.61 19.02 215.53 18.32C215.47 17.6 215.37 16.96 215.23 16.4C214.65 16.84 214 17.39 213.28 18.05C212.56 18.69 212.02 19.16 211.66 19.46C211.46 19.64 211.3 19.89 211.18 20.21C211.06 20.51 210.99 20.84 210.97 21.2C210.97 21.54 210.97 21.92 210.97 22.34C210.97 22.74 210.97 23.12 210.97 23.48C210.09 23.38 209.58 22.9 209.44 22.04C209.22 20.84 208.94 20.06 208.6 19.7ZM233.539 15.86C234.199 15.48 234.899 15.24 235.639 15.14C236.399 15.02 237.059 15.11 237.619 15.41C238.179 15.71 238.459 16.22 238.459 16.94C238.459 17.5 238.189 18.05 237.649 18.59C237.129 19.11 236.559 19.48 235.939 19.7C235.599 19.84 235.179 19.99 234.679 20.15C234.199 20.29 233.829 20.4 233.569 20.48C233.329 20.56 233.049 20.7 232.729 20.9C232.429 21.1 232.159 21.33 231.919 21.59C232.779 21.81 233.719 21.83 234.739 21.65C235.779 21.45 236.669 21.19 237.409 20.87C238.149 20.55 239.019 20.24 240.019 19.94C241.039 19.62 241.969 19.46 242.809 19.46C242.689 20 242.389 20.42 241.909 20.72C241.689 20.86 241.249 21.07 240.589 21.35C239.929 21.63 239.039 21.99 237.919 22.43C236.799 22.85 236.209 23.07 236.149 23.09C235.529 23.35 234.899 23.54 234.259 23.66C233.619 23.76 232.979 23.77 232.339 23.69C231.699 23.59 231.169 23.36 230.749 23C230.669 22.96 230.509 22.81 230.269 22.55C230.029 22.29 229.829 22.15 229.669 22.13C229.529 22.13 229.199 22.2 228.679 22.34C228.179 22.46 227.819 22.53 227.599 22.55C227.299 22.57 227.069 22.47 226.909 22.25C226.749 22.03 226.669 21.78 226.669 21.5C226.669 21.26 226.759 21.1 226.939 21.02C227.119 20.92 227.319 20.88 227.539 20.9C227.779 20.9 228.039 20.9 228.319 20.9C228.619 20.88 228.859 20.82 229.039 20.72C229.539 20.58 229.859 20.43 229.999 20.27C230.139 20.09 230.339 19.66 230.599 18.98C230.699 18.68 230.799 18.42 230.899 18.2C231.019 17.96 231.159 17.74 231.319 17.54C231.499 17.34 231.629 17.19 231.709 17.09C231.789 16.99 231.969 16.85 232.249 16.67C232.529 16.49 232.709 16.37 232.789 16.31C232.889 16.25 233.139 16.1 233.539 15.86ZM232.159 19.22C232.879 19.26 233.559 19.16 234.199 18.92C234.839 18.68 235.349 18.41 235.729 18.11C236.109 17.81 236.579 17.39 237.139 16.85C236.039 16.71 235.059 16.87 234.199 17.33C233.339 17.79 232.659 18.42 232.159 19.22Z" fill="black"/>
<path d="M163.388 123.938C163.906 123.747 164.171 123.172 163.98 122.654L160.869 114.209C160.678 113.691 160.103 113.426 159.585 113.617C159.066 113.808 158.801 114.383 158.992 114.901L161.758 122.407L154.251 125.173C153.733 125.364 153.468 125.939 153.659 126.457C153.85 126.976 154.424 127.241 154.943 127.05L163.388 123.938ZM129.042 44L128.061 43.8053C123.432 67.1179 123.221 83.1427 128.686 95.3782C134.168 107.652 145.258 115.894 162.623 123.908L163.042 123L163.461 122.092C146.221 114.136 135.69 106.157 130.512 94.5627C125.317 82.9302 125.408 67.44 130.023 44.1947L129.042 44Z" fill="black"/>
</svg>
